<?xml version="1.0" encoding="UTF-8" standalone="no"?><svg xmlns="http://www.w3.org/2000/svg" xmlns:xlink="http://www.w3.org/1999/xlink" contentScriptType="application/ecmascript" contentStyleType="text/css" height="1735px" preserveAspectRatio="none" style="width:971px;height:1735px;background:#FFFFFF;" version="1.1" viewBox="0 0 971 1735" width="971px" zoomAndPan="magnify"><defs><filter height="300%" id="f34yoeld61s52" width="300%" x="-1" y="-1"><feGaussianBlur result="blurOut" stdDeviation="2.0"/><feColorMatrix in="blurOut" result="blurOut2" type="matrix" values="0 0 0 0 0 0 0 0 0 0 0 0 0 0 0 0 0 0 .4 0"/><feOffset dx="4.0" dy="4.0" in="blurOut2" result="blurOut3"/><feBlend in="SourceGraphic" in2="blurOut3" mode="normal"/></filter></defs><g><!--MD5=[fefa32cddeaca12235fe2e749092def3]
cluster Voting--><polygon fill="#808080" filter="url(#f34yoeld61s52)" points="16,8.36,88,8.36,95,41.6,954,41.6,954,1728.36,16,1728.36,16,8.36" style="stroke:#000000;stroke-width:1.5;"/><line style="stroke:#000000;stroke-width:1.5;" x1="16" x2="95" y1="41.6" y2="41.6"/><text fill="#000000" font-family="sans-serif" font-size="20" font-weight="bold" lengthAdjust="spacing" textLength="66" x="20" y="31.74">Voting</text><text fill="#000000" font-family="sans-serif" font-size="20" font-style="italic" lengthAdjust="spacing" textLength="81" x="448.5" y="64.9799">«Project»</text><!--MD5=[975d7fda8cf98ff1a26ca528bf10cecf]
cluster App--><polygon fill="#66CCFF" filter="url(#f34yoeld61s52)" points="94,89.36,140,89.36,147,122.6,726,122.6,726,597.36,94,597.36,94,89.36" style="stroke:#000000;stroke-width:1.5;"/><line style="stroke:#000000;stroke-width:1.5;" x1="94" x2="147" y1="122.6" y2="122.6"/><text fill="#000000" font-family="sans-serif" font-size="20" font-weight="bold" lengthAdjust="spacing" textLength="40" x="98" y="112.74">App</text><text fill="#000000" font-family="sans-serif" font-size="20" font-style="italic" lengthAdjust="spacing" textLength="116" x="356" y="145.9799">«MoonZoon»</text><!--MD5=[fca8240bc233c06068545f9c8883ae88]
cluster Frontend--><polygon fill="#66FFCC" filter="url(#f34yoeld61s52)" points="126,188.36,136,178.36,428,178.36,428,555.36,418,565.36,126,565.36,126,188.36" style="stroke:#000000;stroke-width:1.5;"/><line style="stroke:#000000;stroke-width:1.5;" x1="418" x2="428" y1="188.36" y2="178.36"/><line style="stroke:#000000;stroke-width:1.5;" x1="126" x2="418" y1="188.36" y2="188.36"/><line style="stroke:#000000;stroke-width:1.5;" x1="418" x2="418" y1="188.36" y2="565.36"/><text fill="#000000" font-family="sans-serif" font-size="20" font-style="italic" lengthAdjust="spacing" textLength="65" x="240.5" y="212.74">«Zoon»</text><text fill="#000000" font-family="sans-serif" font-size="20" font-weight="bold" lengthAdjust="spacing" textLength="92" x="227" y="239.9799">Frontend</text><path d="M480.0099,449.4734 C483.5836,443.0116 488.2473,443.1101 492.1847,449.1183 C494.7784,440.2061 501.0221,440.6496 506.9252,445.599 C508.7348,437.7107 515.2886,435.8502 520.5621,442.3059 C524.1676,435.5764 528.1119,434.4508 533.6833,440.2464 C539.0138,434.58 543.7282,436.716 546.2972,443.1299 C551.5577,437.5863 557.1679,439.9191 559.5223,446.3418 C564.8975,439.6982 569.9119,440.1339 573.4143,448.1201 C583.9155,441.871 590.033,444.701 593,456.36 C593.8444,456.2009 594.1695,456.5366 593.9957,457.3757 C599.5031,460.3363 599.9639,465.6045 594.597,469.1217 C600.7058,472.672 601.7851,477.3277 595.8172,482.0205 C601.9032,485.7567 603.4914,491.1348 597.1834,496.0757 C602.2024,500.0906 602.266,504.1648 596.2906,507.3056 C602.5494,512.1206 602.9268,517.1577 595.6996,521.4074 C602.3236,532.1198 598.6105,539.0398 586,539.36 C586.4918,538.6506 587.1837,538.7022 587.5519,539.4883 C583.9602,547.1688 578.7304,547.1507 574.1088,540.4511 C570.4655,547.557 565.9788,548.2601 560.933,541.8147 C556.4348,547.9937 550.7023,547.5235 547.2053,540.7533 C542.6889,548.4397 537.2701,548.0621 532.3125,541.2051 C528.1518,548.0274 524.2567,547.0515 519.6181,541.7036 C515.0136,549.0444 509.423,547.4072 505.105,541.3922 C501.553,547.2514 495.6839,547.2688 491.9836,541.5606 C481.1055,549.2042 473.5785,543.645 471,532.36 C471.7615,532.0052 472.2956,532.359 472.159,533.2178 C466.1276,530.691 464.1886,525.633 469.2229,520.5429 C462.1378,517.3094 461.4669,512.4149 467.5833,507.5194 C460.4357,504.5888 460.1611,499.139 466.3258,494.8835 C461.3324,489.5171 463.1361,485.5504 469.5307,483.3478 C464.1283,478.8213 465.0091,472.8824 471.1128,469.6887 C464.1363,459.938 467.3507,453.1392 478,449.36 C478.5607,448.5478 479.5427,448.6281 480.0099,449.4734 " fill="#66CCFF" filter="url(#f34yoeld61s52)" style="stroke:#000000;stroke-width:1.5;"/><!--MD5=[7c020d12a9a7b986608eba11d95a8368]
cluster Blockchain--><path d="M48,676.36 C48,666.36 485,666.36 485,666.36 C485,666.36 922,666.36 922,676.36 L922,1686.36 C922,1696.36 485,1696.36 485,1696.36 C485,1696.36 48,1696.36 48,1686.36 L48,676.36 " fill="#FFCC66" filter="url(#f34yoeld61s52)" style="stroke:#000000;stroke-width:1.5;"/><path d="M48,676.36 C48,686.36 485,686.36 485,686.36 C485,686.36 922,686.36 922,676.36 " fill="none" style="stroke:#000000;stroke-width:1.5;"/><text fill="#000000" font-family="sans-serif" font-size="20" font-style="italic" lengthAdjust="spacing" textLength="80" x="445" y="709.74">«Solana»</text><text fill="#000000" font-family="sans-serif" font-size="20" font-weight="bold" lengthAdjust="spacing" textLength="107" x="431.5" y="736.9799">Blockchain</text><!--MD5=[c51be47e211a9edb689bdcaea21e3370]
cluster Program--><polygon fill="#66FFFF" filter="url(#f34yoeld61s52)" points="198,883.36,292,883.36,299,916.6,890,916.6,890,1664.36,198,1664.36,198,883.36" style="stroke:#000000;stroke-width:1.5;"/><line style="stroke:#000000;stroke-width:1.5;" x1="198" x2="299" y1="916.6" y2="916.6"/><text fill="#000000" font-family="sans-serif" font-size="20" font-weight="bold" lengthAdjust="spacing" textLength="88" x="202" y="906.74">Program</text><text fill="#000000" font-family="sans-serif" font-size="20" font-style="italic" lengthAdjust="spacing" textLength="156" x="470" y="939.9799">«Smart Contract»</text><rect fill="#FFFFFF" filter="url(#f34yoeld61s52)" height="93.7199" style="stroke:#A80036;stroke-width:1.5;" width="85" x="150.5" y="264.36"/><text fill="#000000" font-family="sans-serif" font-size="20" font-style="italic" lengthAdjust="spacing" textLength="64" x="161" y="285.74">«Page»</text><text fill="#000000" font-family="sans-serif" font-size="20" font-weight="bold" lengthAdjust="spacing" textLength="71" x="157.5" y="314.9799">Parties</text><line style="stroke:#A80036;stroke-width:1.5;" x1="151.5" x2="234.5" y1="322.8399" y2="322.8399"/><text fill="#000000" font-family="sans-serif" font-size="20" lengthAdjust="spacing" textLength="7" x="156.5" y="348.2199">/</text><rect fill="#FFFFFF" filter="url(#f34yoeld61s52)" height="93.7199" style="stroke:#A80036;stroke-width:1.5;" width="114" x="271" y="264.36"/><text fill="#000000" font-family="sans-serif" font-size="20" font-style="italic" lengthAdjust="spacing" textLength="64" x="296" y="285.74">«Page»</text><text fill="#000000" font-family="sans-serif" font-size="20" font-weight="bold" lengthAdjust="spacing" textLength="100" x="278" y="314.9799">Add Voter</text><line style="stroke:#A80036;stroke-width:1.5;" x1="272" x2="384" y1="322.8399" y2="322.8399"/><text fill="#000000" font-family="sans-serif" font-size="20" lengthAdjust="spacing" textLength="99" x="277" y="348.2199">/add_voter</text><rect fill="#FFFFFF" filter="url(#f34yoeld61s52)" height="93.7199" style="stroke:#A80036;stroke-width:1.5;" width="113" x="150.5" y="447.36"/><text fill="#000000" font-family="sans-serif" font-size="20" font-style="italic" lengthAdjust="spacing" textLength="64" x="175" y="468.74">«Page»</text><text fill="#000000" font-family="sans-serif" font-size="20" font-weight="bold" lengthAdjust="spacing" textLength="99" x="157.5" y="497.9799">Add Party</text><line style="stroke:#A80036;stroke-width:1.5;" x1="151.5" x2="262.5" y1="505.8399" y2="505.8399"/><text fill="#000000" font-family="sans-serif" font-size="20" lengthAdjust="spacing" textLength="99" x="156.5" y="531.2199">/add_party</text><polygon fill="#CCFF66" filter="url(#f34yoeld61s52)" points="479.5,457.36,570.5,457.36,577.5,490.6,584.5,490.6,584.5,531.8399,479.5,531.8399,479.5,457.36" style="stroke:#000000;stroke-width:1.5;"/><line style="stroke:#000000;stroke-width:1.5;" x1="479.5" x2="577.5" y1="490.6" y2="490.6"/><text fill="#000000" font-family="sans-serif" font-size="20" font-weight="bold" lengthAdjust="spacing" textLength="85" x="483.5" y="480.74">Backend</text><text fill="#000000" font-family="sans-serif" font-size="20" font-style="italic" lengthAdjust="spacing" textLength="71" x="500.5" y="513.9799">«Moon»</text><rect fill="#FEFECE" filter="url(#f34yoeld61s52)" height="74.4799" style="stroke:#A80036;stroke-width:1.5;" width="152" x="566" y="762.36"/><text fill="#000000" font-family="sans-serif" font-size="20" font-style="italic" lengthAdjust="spacing" textLength="91" x="596.5" y="783.74">«Account»</text><text fill="#000000" font-family="sans-serif" font-size="20" font-weight="bold" lengthAdjust="spacing" textLength="138" x="573" y="812.9799">Voting Owner</text><line style="stroke:#A80036;stroke-width:1.5;" x1="567" x2="717" y1="820.8399" y2="820.8399"/><rect fill="#FEFECE" filter="url(#f34yoeld61s52)" height="74.4799" style="stroke:#A80036;stroke-width:1.5;" width="101" x="80.5" y="1014.36"/><text fill="#000000" font-family="sans-serif" font-size="20" font-style="italic" lengthAdjust="spacing" textLength="91" x="85.5" y="1035.74">«Account»</text><text fill="#000000" font-family="sans-serif" font-size="20" font-weight="bold" lengthAdjust="spacing" textLength="55" x="103.5" y="1064.9799">Voter</text><line style="stroke:#A80036;stroke-width:1.5;" x1="81.5" x2="180.5" y1="1072.8399" y2="1072.8399"/><rect fill="#FEFECE" filter="url(#f34yoeld61s52)" height="214.6798" style="stroke:#A80036;stroke-width:1.5;" width="278" x="551" y="1211.36"/><text fill="#000000" font-family="sans-serif" font-size="20" font-style="italic" lengthAdjust="spacing" textLength="91" x="644.5" y="1232.74">«Account»</text><text fill="#000000" font-family="sans-serif" font-size="20" font-weight="bold" lengthAdjust="spacing" textLength="54" x="663" y="1261.9799">Party</text><line style="stroke:#A80036;stroke-width:1.0;" x1="551" x2="829" y1="1269.8399" y2="1269.8399"/><text fill="#000000" font-family="sans-serif" font-size="20" lengthAdjust="spacing" textLength="111" x="595.5" y="1293.2199">is_initialized</text><text fill="#000000" font-family="sans-serif" font-size="20" lengthAdjust="spacing" textLength="41" x="756" y="1293.2199">bool</text><line style="stroke:#A80036;stroke-width:1.0;" x1="751" x2="751" y1="1269.8399" y2="1301.0799"/><line style="stroke:#A80036;stroke-width:1.0;" x1="551" x2="829" y1="1301.0799" y2="1301.0799"/><text fill="#000000" font-family="sans-serif" font-size="20" lengthAdjust="spacing" textLength="131" x="585.5" y="1324.4599">positive_votes</text><text fill="#000000" font-family="sans-serif" font-size="20" lengthAdjust="spacing" textLength="34" x="756" y="1324.4599">u32</text><line style="stroke:#A80036;stroke-width:1.0;" x1="751" x2="751" y1="1301.0799" y2="1332.3199"/><line style="stroke:#A80036;stroke-width:1.0;" x1="551" x2="829" y1="1332.3199" y2="1332.3199"/><text fill="#000000" font-family="sans-serif" font-size="20" lengthAdjust="spacing" textLength="138" x="582" y="1355.6999">negative_votes</text><text fill="#000000" font-family="sans-serif" font-size="20" lengthAdjust="spacing" textLength="34" x="756" y="1355.6999">u32</text><line style="stroke:#A80036;stroke-width:1.0;" x1="751" x2="751" y1="1332.3199" y2="1363.5599"/><line style="stroke:#A80036;stroke-width:1.0;" x1="551" x2="829" y1="1363.5599" y2="1363.5599"/><text fill="#000000" font-family="sans-serif" font-size="20" lengthAdjust="spacing" textLength="53" x="624.5" y="1386.9398">name</text><text fill="#000000" font-family="sans-serif" font-size="20" lengthAdjust="spacing" textLength="55" x="756" y="1386.9398">String</text><line style="stroke:#A80036;stroke-width:1.0;" x1="751" x2="751" y1="1363.5599" y2="1394.7998"/><line style="stroke:#A80036;stroke-width:1.0;" x1="551" x2="829" y1="1394.7998" y2="1394.7998"/><text fill="#000000" font-family="sans-serif" font-size="20" lengthAdjust="spacing" textLength="190" x="556" y="1418.1798">voting_state_pubkey</text><text fill="#000000" font-family="sans-serif" font-size="20" lengthAdjust="spacing" textLength="68" x="756" y="1418.1798">Pubkey</text><line style="stroke:#A80036;stroke-width:1.0;" x1="751" x2="751" y1="1394.7998" y2="1426.0398"/><rect fill="#FEFECE" filter="url(#f34yoeld61s52)" height="152.1999" style="stroke:#A80036;stroke-width:1.5;" width="278" x="551" y="1493.36"/><text fill="#000000" font-family="sans-serif" font-size="20" font-style="italic" lengthAdjust="spacing" textLength="91" x="644.5" y="1514.74">«Account»</text><text fill="#000000" font-family="sans-serif" font-size="20" font-weight="bold" lengthAdjust="spacing" textLength="119" x="630.5" y="1543.9799">Voter Voted</text><line style="stroke:#A80036;stroke-width:1.0;" x1="551" x2="829" y1="1551.8399" y2="1551.8399"/><text fill="#000000" font-family="sans-serif" font-size="20" lengthAdjust="spacing" textLength="111" x="595.5" y="1575.2199">is_initialized</text><text fill="#000000" font-family="sans-serif" font-size="20" lengthAdjust="spacing" textLength="41" x="756" y="1575.2199">bool</text><line style="stroke:#A80036;stroke-width:1.0;" x1="751" x2="751" y1="1551.8399" y2="1583.0799"/><line style="stroke:#A80036;stroke-width:1.0;" x1="551" x2="829" y1="1583.0799" y2="1583.0799"/><text fill="#000000" font-family="sans-serif" font-size="20" lengthAdjust="spacing" textLength="125" x="588.5" y="1606.4599">voter_pubkey</text><text fill="#000000" font-family="sans-serif" font-size="20" lengthAdjust="spacing" textLength="68" x="756" y="1606.4599">Pubkey</text><line style="stroke:#A80036;stroke-width:1.0;" x1="751" x2="751" y1="1583.0799" y2="1614.3199"/><line style="stroke:#A80036;stroke-width:1.0;" x1="551" x2="829" y1="1614.3199" y2="1614.3199"/><text fill="#000000" font-family="sans-serif" font-size="20" lengthAdjust="spacing" textLength="190" x="556" y="1637.6999">voting_state_pubkey</text><text fill="#000000" font-family="sans-serif" font-size="20" lengthAdjust="spacing" textLength="68" x="756" y="1637.6999">Pubkey</text><line style="stroke:#A80036;stroke-width:1.0;" x1="751" x2="751" y1="1614.3199" y2="1645.5599"/><rect fill="#FEFECE" filter="url(#f34yoeld61s52)" height="214.6798" style="stroke:#A80036;stroke-width:1.5;" width="278" x="222" y="1211.36"/><text fill="#000000" font-family="sans-serif" font-size="20" font-style="italic" lengthAdjust="spacing" textLength="91" x="315.5" y="1232.74">«Account»</text><text fill="#000000" font-family="sans-serif" font-size="20" font-weight="bold" lengthAdjust="spacing" textLength="116" x="303" y="1261.9799">Voter Votes</text><line style="stroke:#A80036;stroke-width:1.0;" x1="222" x2="500" y1="1269.8399" y2="1269.8399"/><text fill="#000000" font-family="sans-serif" font-size="20" lengthAdjust="spacing" textLength="111" x="266.5" y="1293.2199">is_initialized</text><text fill="#000000" font-family="sans-serif" font-size="20" lengthAdjust="spacing" textLength="41" x="427" y="1293.2199">bool</text><line style="stroke:#A80036;stroke-width:1.0;" x1="422" x2="422" y1="1269.8399" y2="1301.0799"/><line style="stroke:#A80036;stroke-width:1.0;" x1="222" x2="500" y1="1301.0799" y2="1301.0799"/><text fill="#000000" font-family="sans-serif" font-size="20" lengthAdjust="spacing" textLength="131" x="256.5" y="1324.4599">positive_votes</text><text fill="#000000" font-family="sans-serif" font-size="20" lengthAdjust="spacing" textLength="23" x="427" y="1324.4599">u8</text><line style="stroke:#A80036;stroke-width:1.0;" x1="422" x2="422" y1="1301.0799" y2="1332.3199"/><line style="stroke:#A80036;stroke-width:1.0;" x1="222" x2="500" y1="1332.3199" y2="1332.3199"/><text fill="#000000" font-family="sans-serif" font-size="20" lengthAdjust="spacing" textLength="138" x="253" y="1355.6999">negative_votes</text><text fill="#000000" font-family="sans-serif" font-size="20" lengthAdjust="spacing" textLength="23" x="427" y="1355.6999">u8</text><line style="stroke:#A80036;stroke-width:1.0;" x1="422" x2="422" y1="1332.3199" y2="1363.5599"/><line style="stroke:#A80036;stroke-width:1.0;" x1="222" x2="500" y1="1363.5599" y2="1363.5599"/><text fill="#000000" font-family="sans-serif" font-size="20" lengthAdjust="spacing" textLength="125" x="259.5" y="1386.9398">voter_pubkey</text><text fill="#000000" font-family="sans-serif" font-size="20" lengthAdjust="spacing" textLength="68" x="427" y="1386.9398">Pubkey</text><line style="stroke:#A80036;stroke-width:1.0;" x1="422" x2="422" y1="1363.5599" y2="1394.7998"/><line style="stroke:#A80036;stroke-width:1.0;" x1="222" x2="500" y1="1394.7998" y2="1394.7998"/><text fill="#000000" font-family="sans-serif" font-size="20" lengthAdjust="spacing" textLength="190" x="227" y="1418.1798">voting_state_pubkey</text><text fill="#000000" font-family="sans-serif" font-size="20" lengthAdjust="spacing" textLength="68" x="427" y="1418.1798">Pubkey</text><line style="stroke:#A80036;stroke-width:1.0;" x1="422" x2="422" y1="1394.7998" y2="1426.0398"/><rect fill="#FEFECE" filter="url(#f34yoeld61s52)" height="183.4398" style="stroke:#A80036;stroke-width:1.5;" width="214" x="545" y="960.36"/><text fill="#000000" font-family="sans-serif" font-size="20" font-style="italic" lengthAdjust="spacing" textLength="91" x="606.5" y="981.74">«Account»</text><text fill="#000000" font-family="sans-serif" font-size="20" font-weight="bold" lengthAdjust="spacing" textLength="124" x="590" y="1010.9799">Voting State</text><line style="stroke:#A80036;stroke-width:1.0;" x1="545" x2="759" y1="1018.8399" y2="1018.8399"/><text fill="#000000" font-family="sans-serif" font-size="20" lengthAdjust="spacing" textLength="111" x="557.5" y="1042.2199">is_initialized</text><text fill="#000000" font-family="sans-serif" font-size="20" lengthAdjust="spacing" textLength="41" x="686" y="1042.2199">bool</text><line style="stroke:#A80036;stroke-width:1.0;" x1="681" x2="681" y1="1018.8399" y2="1050.0799"/><line style="stroke:#A80036;stroke-width:1.0;" x1="545" x2="759" y1="1050.0799" y2="1050.0799"/><text fill="#000000" font-family="sans-serif" font-size="20" lengthAdjust="spacing" textLength="79" x="573.5" y="1073.4599">deadline</text><text fill="#000000" font-family="sans-serif" font-size="20" lengthAdjust="spacing" textLength="27" x="686" y="1073.4599">i64</text><line style="stroke:#A80036;stroke-width:1.0;" x1="681" x2="681" y1="1050.0799" y2="1081.3199"/><line style="stroke:#A80036;stroke-width:1.0;" x1="545" x2="759" y1="1081.3199" y2="1081.3199"/><text fill="#000000" font-family="sans-serif" font-size="20" lengthAdjust="spacing" textLength="110" x="558" y="1104.6999">party_count</text><text fill="#000000" font-family="sans-serif" font-size="20" lengthAdjust="spacing" textLength="34" x="686" y="1104.6999">u32</text><line style="stroke:#A80036;stroke-width:1.0;" x1="681" x2="681" y1="1081.3199" y2="1112.5599"/><line style="stroke:#A80036;stroke-width:1.0;" x1="545" x2="759" y1="1112.5599" y2="1112.5599"/><text fill="#000000" font-family="sans-serif" font-size="20" lengthAdjust="spacing" textLength="126" x="550" y="1135.9398">voting_owner</text><text fill="#000000" font-family="sans-serif" font-size="20" lengthAdjust="spacing" textLength="68" x="686" y="1135.9398">Pubkey</text><line style="stroke:#A80036;stroke-width:1.0;" x1="681" x2="681" y1="1112.5599" y2="1143.7998"/><!--MD5=[2c52bf2a9f4c69e755a5015cfec4aff1]
link Frontend to Backend--><path d="M428.0529,385.8737 C428.1032,386.0544 428.1537,386.235 428.2045,386.4155 C428.4077,387.1378 428.6157,387.8594 428.8288,388.5799 C429.2548,390.0209 429.7007,391.4578 430.1673,392.888 C431.1006,395.7484 432.1167,398.582 433.223,401.3685 C435.4356,406.9416 438.0087,412.3262 441,417.36 C449.67,431.95 462.2,445.03 475.2,456.06 " fill="none" id="Frontend-to-Backend" style="stroke:#A80036;stroke-width:1.0;"/><polygon fill="#A80036" points="479.25,459.41,474.858,450.5946,475.3949,456.226,469.7636,456.7628,479.25,459.41" style="stroke:#A80036;stroke-width:1.0;"/><text fill="#000000" font-family="sans-serif" font-size="20" lengthAdjust="spacing" textLength="50" x="442" y="410.74">Fetch</text><!--MD5=[04531073ec6472dd3d7ef663afaad8b1]
reverse link Frontend to Backend--><path d="M428.0338,318.1735 C428.6541,318.6386 429.3043,319.1294 429.9823,319.645 C435.4066,323.77 442.6094,329.485 450.4863,336.37 C466.24,350.14 484.69,368.59 497,388.36 C510.1,409.4 518.89,435.9 524.38,457.01 " fill="none" id="Frontend-backto-Backend" style="stroke:#A80036;stroke-width:1.0;"/><polygon fill="#A80036" points="428.0338,318.1735,432.8347,326.773,432.0341,321.1731,437.634,320.3725,428.0338,318.1735" style="stroke:#A80036;stroke-width:1.0;"/><text fill="#000000" font-family="sans-serif" font-size="20" lengthAdjust="spacing" textLength="172" x="511" y="410.74">Server-Sent Events</text><!--MD5=[21ac96019a1c99ffefd448e1b5ec2f45]
link VotingOwner to VotingState--><path codeLine="72" d="M643.44,836.45 C644.7,867.75 646.56,914.48 648.24,956.28 " fill="none" id="VotingOwner-VotingState" style="stroke:#A80036;stroke-width:1.0;"/><text fill="#000000" font-family="sans-serif" font-size="20" lengthAdjust="spacing" textLength="11" x="631.7676" y="866.1891">1</text><text fill="#000000" font-family="sans-serif" font-size="20" lengthAdjust="spacing" textLength="11" x="636.8783" y="946.3951">1</text><!--MD5=[f258fafcbe424b1fdfe49c7ff49e61b7]
link VotingState to Party--><path codeLine="73" d="M665.56,1146.73 C668.37,1166.31 671.36,1187.11 674.24,1207.19 " fill="none" id="VotingState-Party" style="stroke:#A80036;stroke-width:1.0;"/><text fill="#000000" font-family="sans-serif" font-size="20" lengthAdjust="spacing" textLength="11" x="654.9252" y="1173.016">1</text><text fill="#000000" font-family="sans-serif" font-size="20" lengthAdjust="spacing" textLength="32" x="641.1979" y="1197.472">0..*</text><!--MD5=[45f390a4925578a1e7fdd134b3b2364e]
link VotingState to VoterVotes--><path codeLine="74" d="M548.17,1146.73 C526.63,1166.31 503.75,1187.11 481.66,1207.19 " fill="none" id="VotingState-VoterVotes" style="stroke:#A80036;stroke-width:1.0;"/><text fill="#000000" font-family="sans-serif" font-size="20" lengthAdjust="spacing" textLength="11" x="532.216" y="1173.016">1</text><text fill="#000000" font-family="sans-serif" font-size="20" lengthAdjust="spacing" textLength="32" x="453.0942" y="1197.472">0..*</text><!--MD5=[4ad61500158966bb7f89290793b2e6e5]
link VotingState to VoterVoted--><path codeLine="75" d="M767.05,1112.47 C801.82,1136.89 835.83,1168.61 855,1207.36 C898.55,1295.4 896.34,1339.26 855,1428.36 C844.42,1451.16 828.08,1471.58 809.71,1489.3 " fill="none" id="VotingState-VoterVoted" style="stroke:#A80036;stroke-width:1.0;"/><text fill="#000000" font-family="sans-serif" font-size="20" lengthAdjust="spacing" textLength="11" x="767.05" y="1106.85">1</text><text fill="#000000" font-family="sans-serif" font-size="20" lengthAdjust="spacing" textLength="32" x="782.4094" y="1479.4414">0..*</text><!--MD5=[bfd2344586edc93bc8d80d6e0a8d47f4]
link Party to VoterVoted--><path codeLine="76" d="M690,1428.44 C690,1448.92 690,1469.95 690,1489.27 " fill="none" id="Party-VoterVoted" style="stroke:#A80036;stroke-width:1.0;"/><text fill="#000000" font-family="sans-serif" font-size="20" lengthAdjust="spacing" textLength="11" x="678.7508" y="1455.4097">1</text><text fill="#000000" font-family="sans-serif" font-size="20" lengthAdjust="spacing" textLength="32" x="657.275" y="1479.4101">0..*</text><!--MD5=[1e08d00dd49f58fd2d30df05681f3cac]
link Voter to VoterVoted--><path codeLine="77" d="M125.86,1088.47 C117.53,1162.33 109.84,1331.82 197,1428.36 C243.31,1479.65 415.01,1520.07 542.84,1543.92 " fill="none" id="Voter-VoterVoted" style="stroke:#A80036;stroke-width:1.0;"/><text fill="#000000" font-family="sans-serif" font-size="20" lengthAdjust="spacing" textLength="11" x="113.0978" y="1118.2124">1</text><text fill="#000000" font-family="sans-serif" font-size="20" lengthAdjust="spacing" textLength="32" x="510.84" y="1538.3">0..*</text><!--MD5=[a48648d79fd8ee83ca7f5963a16a9022]
link Voter to VoterVotes--><path codeLine="78" d="M154.97,1088.52 C167.25,1106.38 182.8,1127.98 198,1146.36 C214.7,1166.56 233.24,1187.31 251.66,1207.08 " fill="none" id="Voter-VoterVotes" style="stroke:#A80036;stroke-width:1.0;"/><text fill="#000000" font-family="sans-serif" font-size="20" lengthAdjust="spacing" textLength="11" x="147.0291" y="1118.2707">1</text><text fill="#000000" font-family="sans-serif" font-size="20" lengthAdjust="spacing" textLength="11" x="236.8918" y="1197.3584">1</text><!--MD5=[a8fcdf42efed5b0ca24ef12635fc0614]
link Backend to Blockchain--><path d="M496.38,535.08 C472.04,559.53 437.64,589.19 401,605.36 C331.88,635.86 115.28,594.87 64,650.36 C41.995,674.17 39.7125,710.395 43.0687,741.0462 C43.9078,748.7091 45.0993,756.0235 46.4231,762.7085 C46.7541,764.3798 47.0933,766.0117 47.4374,767.5999 C47.6094,768.394 47.7827,769.1771 47.9567,769.9488 " fill="none" id="Backend-Blockchain" style="stroke:#A80036;stroke-width:1.0;"/><polygon fill="#A80036" points="47.9567,769.9488,49.8788,760.2893,46.8568,765.0713,42.0748,762.0492,47.9567,769.9488" style="stroke:#A80036;stroke-width:1.0;"/><polygon fill="#A80036" points="499.9,531.51,490.7292,535.1012,496.386,535.0669,496.4202,540.7236,499.9,531.51" style="stroke:#A80036;stroke-width:1.0;"/><text fill="#000000" font-family="sans-serif" font-size="20" lengthAdjust="spacing" textLength="89" x="371" y="635.74">JSON RPC</text><!--MD5=[7eadf256346ab46062a04b22375a34ab]
link Backend to VotingOwner--><path codeLine="81" d="M545.16,531.61 C565.74,588.29 605.41,697.58 627.04,757.17 " fill="none" id="Backend-to-VotingOwner" style="stroke:#A80036;stroke-width:1.0;stroke-dasharray:7.0,7.0;"/><polygon fill="#A80036" points="628.83,762.07,629.5039,752.2442,627.1167,757.3727,621.9882,754.9855,628.83,762.07" style="stroke:#A80036;stroke-width:1.0;"/><text fill="#000000" font-family="sans-serif" font-size="20" lengthAdjust="spacing" textLength="76" x="544.9946" y="748.6544">controls</text><!--MD5=[e321104f4b8991fb604b0e09fb65d91f]
link Parties to AddVoter--><!--MD5=[a6ea1b95e777459ae0c2fbdc691edab6]
link Parties to AddParty--><!--MD5=[73fa57f292a6de2cd5239a52a949ac69]
@startuml Architecture

skinparam defaultFontSize 20
skinparam package {
    BackgroundColor<<Project>> gray
    BackgroundColor<<MoonZoon>> #66ccff
    BackgroundColor<<Moon>> #ccff66
    BackgroundColor<<Page>> #ffcc66
    BackgroundColor<<Smart Contract>> #66ffff
}
skinparam node {
    BackgroundColor<<Zoon>> #66ffcc 
}
skinparam object {
    BackgroundColor<<Page>> #ffffff
}
skinparam database {
    BackgroundColor<<Solana>> #ffcc66
}

package Voting <<Project>> {
    package App <<MoonZoon>> {
        node Frontend <<Zoon>> {
            object "**Parties**" as Parties <<Page>> {
                /
            }
            object "**Add Voter**" as AddVoter <<Page>> {
                /add_voter
            }
            object "**Add Party**" as AddParty <<Page>> {
                /add_party
            }
        }
        cloud { 
            package Backend <<Moon>> {
            }
        }
        Frontend - -> Backend : Fetch
    Frontend <- - Backend : Server-Sent Events
    }
    database Blockchain <<Solana>> {
        object "**Voting Owner**" as VotingOwner <<Account>> {
        }
        object "**Voter**" as Voter <<Account>> {
        }
        package Program <<Smart Contract>> {
            map "**Party**" as Party <<Account>> {
                is_initialized => bool
                positive_votes => u32
                negative_votes => u32
                name => String
                voting_state_pubkey => Pubkey
            }
            map "**Voter Voted**" as VoterVoted <<Account>> {
                is_initialized => bool
                voter_pubkey => Pubkey
                voting_state_pubkey => Pubkey
            }
            map "**Voter Votes**" as VoterVotes <<Account>> {
                is_initialized => bool
                positive_votes => u8
                negative_votes => u8
                voter_pubkey => Pubkey
                voting_state_pubkey => Pubkey
            }
            map "**Voting State**" as VotingState <<Account>> {
                is_initialized => bool
                deadline => i64
                party_count => u32
                voting_owner => Pubkey
            }
        }
        VotingOwner "1" - - "1" VotingState
        VotingState "1" - - "0..*" Party
        VotingState "1" - - "0..*" VoterVotes
        VotingState "1" - - "0..*" VoterVoted
        Party "1" - - "0..*" VoterVoted
        Voter "1" - - "0..*" VoterVoted
        Voter "1" - - "1" VoterVotes
    }
    Backend <- -> Blockchain : JSON RPC
    Backend ..> "controls" VotingOwner
}

@enduml

PlantUML version 1.2021.7(Sun May 23 14:40:07 CEST 2021)
(GPL source distribution)
Java Runtime: OpenJDK Runtime Environment
JVM: OpenJDK 64-Bit Server VM
Default Encoding: UTF-8
Language: en
Country: US
--></g></svg>